<?xml version="1.0" encoding="UTF-8" standalone="no"?>
<!DOCTYPE svg PUBLIC "-//W3C//DTD SVG 1.1//EN"
 "http://www.w3.org/Graphics/SVG/1.1/DTD/svg11.dtd">
<!-- Generated by graphviz version 13.1.0 (20250701.0955)
 -->
<!-- Title: interface/driver_sts21_interface.h Pages: 1 -->
<svg width="520pt" height="176pt"
 viewBox="0.00 0.00 520.00 176.00" xmlns="http://www.w3.org/2000/svg" xmlns:xlink="http://www.w3.org/1999/xlink">
<g id="graph0" class="graph" transform="scale(1 1) rotate(0) translate(4 172)">
<title>interface/driver_sts21_interface.h</title>
<!-- Node1 -->
<g id="Node000001" class="node">
<title>Node1</title>
<g id="a_Node000001"><a xlink:title="driver sts21 interface header file">
<polygon fill="#999999" stroke="#666666" points="300.38,-168 190.62,-168 190.62,-136 300.38,-136 300.38,-168"/>
<text xml:space="preserve" text-anchor="start" x="198.62" y="-154.5" font-family="Helvetica,sans-Serif" font-size="10.00">interface/driver_sts21</text>
<text xml:space="preserve" text-anchor="middle" x="245.5" y="-142.5" font-family="Helvetica,sans-Serif" font-size="10.00">_interface.h</text>
</a>
</g>
</g>
<!-- Node2 -->
<g id="Node000002" class="node">
<title>Node2</title>
<g id="a_Node000002"><a xlink:href="driver__sts21__basic_8h.html" target="_top" xlink:title="driver sts21 basic header file">
<polygon fill="white" stroke="#666666" points="109,-100 0,-100 0,-68 109,-68 109,-100"/>
<text xml:space="preserve" text-anchor="start" x="8" y="-86.5" font-family="Helvetica,sans-Serif" font-size="10.00">example/driver_sts21</text>
<text xml:space="preserve" text-anchor="middle" x="54.5" y="-74.5" font-family="Helvetica,sans-Serif" font-size="10.00">_basic.h</text>
</a>
</g>
</g>
<!-- Node1&#45;&gt;Node2 -->
<g id="edge1_Node000001_Node000002" class="edge">
<title>Node1&#45;&gt;Node2</title>
<g id="a_edge1_Node000001_Node000002"><a xlink:title=" ">
<path fill="none" stroke="#63b8ff" d="M189.99,-131.82C161.17,-121.86 126.42,-109.85 99.33,-100.49"/>
<polygon fill="#63b8ff" stroke="#63b8ff" points="188.69,-135.07 199.29,-135.03 190.98,-128.46 188.69,-135.07"/>
</a>
</g>
</g>
<!-- Node4 -->
<g id="Node000004" class="node">
<title>Node4</title>
<g id="a_Node000004"><a xlink:href="driver__sts21__interface__template_8c.html" target="_top" xlink:title="driver sts21 interface template source file">
<polygon fill="white" stroke="#666666" points="236.38,-100 126.62,-100 126.62,-68 236.38,-68 236.38,-100"/>
<text xml:space="preserve" text-anchor="start" x="134.62" y="-86.5" font-family="Helvetica,sans-Serif" font-size="10.00">interface/driver_sts21</text>
<text xml:space="preserve" text-anchor="middle" x="181.5" y="-74.5" font-family="Helvetica,sans-Serif" font-size="10.00">_interface_template.c</text>
</a>
</g>
</g>
<!-- Node1&#45;&gt;Node4 -->
<g id="edge3_Node000001_Node000004" class="edge">
<title>Node1&#45;&gt;Node4</title>
<g id="a_edge3_Node000001_Node000004"><a xlink:title=" ">
<path fill="none" stroke="#63b8ff" d="M222.64,-127.43C213.87,-118.38 204.09,-108.29 196.26,-100.22"/>
<polygon fill="#63b8ff" stroke="#63b8ff" points="220.13,-129.86 229.6,-134.61 225.15,-124.99 220.13,-129.86"/>
</a>
</g>
</g>
<!-- Node5 -->
<g id="Node000005" class="node">
<title>Node5</title>
<g id="a_Node000005"><a xlink:href="driver__sts21__read__test_8h.html" target="_top" xlink:title="driver sts21 read test header file">
<polygon fill="white" stroke="#666666" points="366.88,-100 254.12,-100 254.12,-68 366.88,-68 366.88,-100"/>
<text xml:space="preserve" text-anchor="start" x="262.12" y="-86.5" font-family="Helvetica,sans-Serif" font-size="10.00">test/driver_sts21_read</text>
<text xml:space="preserve" text-anchor="middle" x="310.5" y="-74.5" font-family="Helvetica,sans-Serif" font-size="10.00">_test.h</text>
</a>
</g>
</g>
<!-- Node1&#45;&gt;Node5 -->
<g id="edge4_Node000001_Node000005" class="edge">
<title>Node1&#45;&gt;Node5</title>
<g id="a_edge4_Node000001_Node000005"><a xlink:title=" ">
<path fill="none" stroke="#63b8ff" d="M268.44,-127.71C277.42,-118.59 287.48,-108.37 295.51,-100.22"/>
<polygon fill="#63b8ff" stroke="#63b8ff" points="266.16,-125.03 261.64,-134.61 271.15,-129.95 266.16,-125.03"/>
</a>
</g>
</g>
<!-- Node7 -->
<g id="Node000007" class="node">
<title>Node7</title>
<g id="a_Node000007"><a xlink:href="driver__sts21__register__test_8h.html" target="_top" xlink:title="driver sts21 register test header file">
<polygon fill="white" stroke="#666666" points="511.62,-100 385.38,-100 385.38,-68 511.62,-68 511.62,-100"/>
<text xml:space="preserve" text-anchor="start" x="393.38" y="-86.5" font-family="Helvetica,sans-Serif" font-size="10.00">test/driver_sts21_register</text>
<text xml:space="preserve" text-anchor="middle" x="448.5" y="-74.5" font-family="Helvetica,sans-Serif" font-size="10.00">_test.h</text>
</a>
</g>
</g>
<!-- Node1&#45;&gt;Node7 -->
<g id="edge6_Node000001_Node000007" class="edge">
<title>Node1&#45;&gt;Node7</title>
<g id="a_edge6_Node000001_Node000007"><a xlink:title=" ">
<path fill="none" stroke="#63b8ff" d="M303.69,-132.08C334.47,-122.07 371.8,-109.94 400.85,-100.49"/>
<polygon fill="#63b8ff" stroke="#63b8ff" points="302.96,-128.64 294.53,-135.06 305.13,-135.29 302.96,-128.64"/>
</a>
</g>
</g>
<!-- Node3 -->
<g id="Node000003" class="node">
<title>Node3</title>
<g id="a_Node000003"><a xlink:href="driver__sts21__basic_8c.html" target="_top" xlink:title="driver sts21 basic source file">
<polygon fill="white" stroke="#666666" points="109,-32 0,-32 0,0 109,0 109,-32"/>
<text xml:space="preserve" text-anchor="start" x="8" y="-18.5" font-family="Helvetica,sans-Serif" font-size="10.00">example/driver_sts21</text>
<text xml:space="preserve" text-anchor="middle" x="54.5" y="-6.5" font-family="Helvetica,sans-Serif" font-size="10.00">_basic.c</text>
</a>
</g>
</g>
<!-- Node2&#45;&gt;Node3 -->
<g id="edge2_Node000002_Node000003" class="edge">
<title>Node2&#45;&gt;Node3</title>
<g id="a_edge2_Node000002_Node000003"><a xlink:title=" ">
<path fill="none" stroke="#63b8ff" d="M54.5,-56.31C54.5,-48.12 54.5,-39.38 54.5,-32.22"/>
<polygon fill="#63b8ff" stroke="#63b8ff" points="51,-56.18 54.5,-66.18 58,-56.18 51,-56.18"/>
</a>
</g>
</g>
<!-- Node6 -->
<g id="Node000006" class="node">
<title>Node6</title>
<g id="a_Node000006"><a xlink:href="driver__sts21__read__test_8c.html" target="_top" xlink:title="driver sts21 read test source file">
<polygon fill="white" stroke="#666666" points="366.88,-32 254.12,-32 254.12,0 366.88,0 366.88,-32"/>
<text xml:space="preserve" text-anchor="start" x="262.12" y="-18.5" font-family="Helvetica,sans-Serif" font-size="10.00">test/driver_sts21_read</text>
<text xml:space="preserve" text-anchor="middle" x="310.5" y="-6.5" font-family="Helvetica,sans-Serif" font-size="10.00">_test.c</text>
</a>
</g>
</g>
<!-- Node5&#45;&gt;Node6 -->
<g id="edge5_Node000005_Node000006" class="edge">
<title>Node5&#45;&gt;Node6</title>
<g id="a_edge5_Node000005_Node000006"><a xlink:title=" ">
<path fill="none" stroke="#63b8ff" d="M310.5,-56.31C310.5,-48.12 310.5,-39.38 310.5,-32.22"/>
<polygon fill="#63b8ff" stroke="#63b8ff" points="307,-56.18 310.5,-66.18 314,-56.18 307,-56.18"/>
</a>
</g>
</g>
<!-- Node8 -->
<g id="Node000008" class="node">
<title>Node8</title>
<g id="a_Node000008"><a xlink:href="driver__sts21__register__test_8c.html" target="_top" xlink:title="driver sts21 register test source file">
<polygon fill="white" stroke="#666666" points="511.62,-32 385.38,-32 385.38,0 511.62,0 511.62,-32"/>
<text xml:space="preserve" text-anchor="start" x="393.38" y="-18.5" font-family="Helvetica,sans-Serif" font-size="10.00">test/driver_sts21_register</text>
<text xml:space="preserve" text-anchor="middle" x="448.5" y="-6.5" font-family="Helvetica,sans-Serif" font-size="10.00">_test.c</text>
</a>
</g>
</g>
<!-- Node7&#45;&gt;Node8 -->
<g id="edge7_Node000007_Node000008" class="edge">
<title>Node7&#45;&gt;Node8</title>
<g id="a_edge7_Node000007_Node000008"><a xlink:title=" ">
<path fill="none" stroke="#63b8ff" d="M448.5,-56.31C448.5,-48.12 448.5,-39.38 448.5,-32.22"/>
<polygon fill="#63b8ff" stroke="#63b8ff" points="445,-56.18 448.5,-66.18 452,-56.18 445,-56.18"/>
</a>
</g>
</g>
</g>
</svg>
