<?xml version="1.0" encoding="UTF-8" standalone="no"?>
<!DOCTYPE svg PUBLIC "-//W3C//DTD SVG 1.1//EN"
 "http://www.w3.org/Graphics/SVG/1.1/DTD/svg11.dtd">
<!-- Generated by graphviz version 13.1.0 (20250701.0955)
 -->
<!-- Title: sts21_basic_init Pages: 1 -->
<svg width="261pt" height="694pt"
 viewBox="0.00 0.00 261.00 694.00" xmlns="http://www.w3.org/2000/svg" xmlns:xlink="http://www.w3.org/1999/xlink">
<g id="graph0" class="graph" transform="scale(1 1) rotate(0) translate(4 690)">
<title>sts21_basic_init</title>
<!-- Node1 -->
<g id="Node000001" class="node">
<title>Node1</title>
<g id="a_Node000001"><a xlink:title="basic example init">
<polygon fill="#999999" stroke="#666666" points="86.5,-365 0,-365 0,-345 86.5,-345 86.5,-365"/>
<text xml:space="preserve" text-anchor="middle" x="43.25" y="-351.5" font-family="Helvetica,sans-Serif" font-size="10.00">sts21_basic_init</text>
</a>
</g>
</g>
<!-- Node2 -->
<g id="Node000002" class="node">
<title>Node2</title>
<g id="a_Node000002"><a xlink:href="group__sts21__base__driver.html#gab17e5a8502a809893404c5ccc7d71bd2" target="_top" xlink:title="close the chip">
<polygon fill="white" stroke="#666666" points="221.75,-686 153.25,-686 153.25,-666 221.75,-666 221.75,-686"/>
<text xml:space="preserve" text-anchor="middle" x="187.5" y="-672.5" font-family="Helvetica,sans-Serif" font-size="10.00">sts21_deinit</text>
</a>
</g>
</g>
<!-- Node1&#45;&gt;Node2 -->
<g id="edge1_Node000001_Node000002" class="edge">
<title>Node1&#45;&gt;Node2</title>
<g id="a_edge1_Node000001_Node000002"><a xlink:title=" ">
<path fill="none" stroke="#63b8ff" d="M45.55,-365.28C51.8,-413.1 80.18,-613.17 122.5,-657 127.86,-662.55 134.75,-666.49 142.02,-669.3"/>
<polygon fill="#63b8ff" stroke="#63b8ff" points="140.77,-672.57 151.36,-672.19 142.84,-665.89 140.77,-672.57"/>
</a>
</g>
</g>
<!-- Node3 -->
<g id="Node000003" class="node">
<title>Node3</title>
<g id="a_Node000003"><a xlink:href="group__sts21__base__driver.html#gade790200a89c7e7459d78e0269cc5e17" target="_top" xlink:title="initialize the chip">
<polygon fill="white" stroke="#666666" points="216.5,-648 158.5,-648 158.5,-628 216.5,-628 216.5,-648"/>
<text xml:space="preserve" text-anchor="middle" x="187.5" y="-634.5" font-family="Helvetica,sans-Serif" font-size="10.00">sts21_init</text>
</a>
</g>
</g>
<!-- Node1&#45;&gt;Node3 -->
<g id="edge2_Node000001_Node000003" class="edge">
<title>Node1&#45;&gt;Node3</title>
<g id="a_edge2_Node000001_Node000003"><a xlink:title=" ">
<path fill="none" stroke="#63b8ff" d="M44.04,-365.31C43.84,-404.39 48.49,-544.96 122.5,-619 129.2,-625.7 138.15,-630.06 147.22,-632.89"/>
<polygon fill="#63b8ff" stroke="#63b8ff" points="146.2,-636.24 156.75,-635.27 147.9,-629.45 146.2,-636.24"/>
</a>
</g>
</g>
<!-- Node4 -->
<g id="Node000004" class="node">
<title>Node4</title>
<g id="a_Node000004"><a xlink:href="group__sts21__interface__driver.html#gabebcda45f23e853a80e823cab07ab16e" target="_top" xlink:title="interface print format data">
<polygon fill="white" stroke="#666666" points="244.62,-610 130.38,-610 130.38,-578 244.62,-578 244.62,-610"/>
<text xml:space="preserve" text-anchor="start" x="138.38" y="-596.5" font-family="Helvetica,sans-Serif" font-size="10.00">sts21_interface_debug</text>
<text xml:space="preserve" text-anchor="middle" x="187.5" y="-584.5" font-family="Helvetica,sans-Serif" font-size="10.00">_print</text>
</a>
</g>
</g>
<!-- Node1&#45;&gt;Node4 -->
<g id="edge3_Node000001_Node000004" class="edge">
<title>Node1&#45;&gt;Node4</title>
<g id="a_edge3_Node000001_Node000004"><a xlink:title=" ">
<path fill="none" stroke="#63b8ff" d="M45.05,-365.03C48.26,-398.58 63.02,-508.21 122.5,-569 123.09,-569.61 123.71,-570.2 124.33,-570.78"/>
<polygon fill="#63b8ff" stroke="#63b8ff" points="121.93,-573.35 132,-576.62 126.17,-567.78 121.93,-573.35"/>
</a>
</g>
</g>
<!-- Node5 -->
<g id="Node000005" class="node">
<title>Node5</title>
<g id="a_Node000005"><a xlink:href="group__sts21__interface__driver.html#ga0df679ded71a8894e9db5c97d0860885" target="_top" xlink:title="interface delay ms">
<polygon fill="white" stroke="#666666" points="252.5,-560 122.5,-560 122.5,-540 252.5,-540 252.5,-560"/>
<text xml:space="preserve" text-anchor="middle" x="187.5" y="-546.5" font-family="Helvetica,sans-Serif" font-size="10.00">sts21_interface_delay_ms</text>
</a>
</g>
</g>
<!-- Node1&#45;&gt;Node5 -->
<g id="edge4_Node000001_Node000005" class="edge">
<title>Node1&#45;&gt;Node5</title>
<g id="a_edge4_Node000001_Node000005"><a xlink:title=" ">
<path fill="none" stroke="#63b8ff" d="M45.74,-365.09C50.7,-395.07 69.48,-484.45 122.5,-531 123.6,-531.97 124.75,-532.89 125.94,-533.76"/>
<polygon fill="#63b8ff" stroke="#63b8ff" points="124.04,-536.7 134.42,-538.8 127.61,-530.68 124.04,-536.7"/>
</a>
</g>
</g>
<!-- Node6 -->
<g id="Node000006" class="node">
<title>Node6</title>
<g id="a_Node000006"><a xlink:href="group__sts21__interface__driver.html#gaa05aa0da01c2ca437afbba5f2d91f9e4" target="_top" xlink:title="interface iic bus deinit">
<polygon fill="white" stroke="#666666" points="236.38,-522 138.62,-522 138.62,-490 236.38,-490 236.38,-522"/>
<text xml:space="preserve" text-anchor="start" x="146.62" y="-508.5" font-family="Helvetica,sans-Serif" font-size="10.00">sts21_interface_iic</text>
<text xml:space="preserve" text-anchor="middle" x="187.5" y="-496.5" font-family="Helvetica,sans-Serif" font-size="10.00">_deinit</text>
</a>
</g>
</g>
<!-- Node1&#45;&gt;Node6 -->
<g id="edge5_Node000001_Node000006" class="edge">
<title>Node1&#45;&gt;Node6</title>
<g id="a_edge5_Node000001_Node000006"><a xlink:title=" ">
<path fill="none" stroke="#63b8ff" d="M48.02,-365.37C57.16,-389.1 82.71,-447.91 122.5,-481 124.44,-482.61 126.49,-484.13 128.63,-485.55"/>
<polygon fill="#63b8ff" stroke="#63b8ff" points="126.72,-488.49 137.12,-490.47 130.23,-482.43 126.72,-488.49"/>
</a>
</g>
</g>
<!-- Node7 -->
<g id="Node000007" class="node">
<title>Node7</title>
<g id="a_Node000007"><a xlink:href="group__sts21__interface__driver.html#ga1802ca45a69c5c45ca9e4640b0d58fc6" target="_top" xlink:title="interface iic bus init">
<polygon fill="white" stroke="#666666" points="245.38,-472 129.62,-472 129.62,-452 245.38,-452 245.38,-472"/>
<text xml:space="preserve" text-anchor="middle" x="187.5" y="-458.5" font-family="Helvetica,sans-Serif" font-size="10.00">sts21_interface_iic_init</text>
</a>
</g>
</g>
<!-- Node1&#45;&gt;Node7 -->
<g id="edge6_Node000001_Node000007" class="edge">
<title>Node1&#45;&gt;Node7</title>
<g id="a_edge6_Node000001_Node000007"><a xlink:title=" ">
<path fill="none" stroke="#63b8ff" d="M50.63,-365.38C62.49,-383.78 89.72,-422.16 122.5,-443 124.77,-444.44 127.15,-445.78 129.61,-447.02"/>
<polygon fill="#63b8ff" stroke="#63b8ff" points="128.09,-450.17 138.66,-450.97 130.89,-443.76 128.09,-450.17"/>
</a>
</g>
</g>
<!-- Node8 -->
<g id="Node000008" class="node">
<title>Node8</title>
<g id="a_Node000008"><a xlink:href="group__sts21__interface__driver.html#gaa9c9ea44f4fb622323f7be49d13e10b2" target="_top" xlink:title="interface iic bus read">
<polygon fill="white" stroke="#666666" points="248.38,-434 126.62,-434 126.62,-414 248.38,-414 248.38,-434"/>
<text xml:space="preserve" text-anchor="middle" x="187.5" y="-420.5" font-family="Helvetica,sans-Serif" font-size="10.00">sts21_interface_iic_read</text>
</a>
</g>
</g>
<!-- Node1&#45;&gt;Node8 -->
<g id="edge7_Node000001_Node000008" class="edge">
<title>Node1&#45;&gt;Node8</title>
<g id="a_edge7_Node000001_Node000008"><a xlink:title=" ">
<path fill="none" stroke="#63b8ff" d="M57.99,-365.47C73.1,-376.58 98.45,-394.01 122.5,-405 126.25,-406.71 130.2,-408.32 134.21,-409.81"/>
<polygon fill="#63b8ff" stroke="#63b8ff" points="132.88,-413.06 143.48,-413.01 135.16,-406.44 132.88,-413.06"/>
</a>
</g>
</g>
<!-- Node9 -->
<g id="Node000009" class="node">
<title>Node9</title>
<g id="a_Node000009"><a xlink:href="group__sts21__interface__driver.html#gafcb082a9bc1eede0a0fd9a81694c8be5" target="_top" xlink:title="interface iic bus read with 16 bits register address">
<polygon fill="white" stroke="#666666" points="236.38,-396 138.62,-396 138.62,-364 236.38,-364 236.38,-396"/>
<text xml:space="preserve" text-anchor="start" x="146.62" y="-382.5" font-family="Helvetica,sans-Serif" font-size="10.00">sts21_interface_iic</text>
<text xml:space="preserve" text-anchor="middle" x="187.5" y="-370.5" font-family="Helvetica,sans-Serif" font-size="10.00">_read_address16</text>
</a>
</g>
</g>
<!-- Node1&#45;&gt;Node9 -->
<g id="edge8_Node000001_Node000009" class="edge">
<title>Node1&#45;&gt;Node9</title>
<g id="a_edge8_Node000001_Node000009"><a xlink:title=" ">
<path fill="none" stroke="#63b8ff" d="M86.93,-362.5C99.59,-364.73 113.69,-367.2 127.2,-369.58"/>
<polygon fill="#63b8ff" stroke="#63b8ff" points="126.42,-373 136.88,-371.28 127.63,-366.1 126.42,-373"/>
</a>
</g>
</g>
<!-- Node10 -->
<g id="Node000010" class="node">
<title>Node10</title>
<g id="a_Node000010"><a xlink:href="group__sts21__interface__driver.html#ga1ded6ed3b0924bb78958cefdc55cc5bc" target="_top" xlink:title="interface iic bus read command">
<polygon fill="white" stroke="#666666" points="236.38,-346 138.62,-346 138.62,-314 236.38,-314 236.38,-346"/>
<text xml:space="preserve" text-anchor="start" x="146.62" y="-332.5" font-family="Helvetica,sans-Serif" font-size="10.00">sts21_interface_iic</text>
<text xml:space="preserve" text-anchor="middle" x="187.5" y="-320.5" font-family="Helvetica,sans-Serif" font-size="10.00">_read_command</text>
</a>
</g>
</g>
<!-- Node1&#45;&gt;Node10 -->
<g id="edge9_Node000001_Node000010" class="edge">
<title>Node1&#45;&gt;Node10</title>
<g id="a_edge9_Node000001_Node000010"><a xlink:title=" ">
<path fill="none" stroke="#63b8ff" d="M86.93,-347.5C99.59,-345.27 113.69,-342.8 127.2,-340.42"/>
<polygon fill="#63b8ff" stroke="#63b8ff" points="127.63,-343.9 136.88,-338.72 126.42,-337 127.63,-343.9"/>
</a>
</g>
</g>
<!-- Node11 -->
<g id="Node000011" class="node">
<title>Node11</title>
<g id="a_Node000011"><a xlink:href="group__sts21__interface__driver.html#ga93305924a914d3db6ed8d17adc3503c6" target="_top" xlink:title="interface iic bus read with wait">
<polygon fill="white" stroke="#666666" points="236.38,-296 138.62,-296 138.62,-264 236.38,-264 236.38,-296"/>
<text xml:space="preserve" text-anchor="start" x="146.62" y="-282.5" font-family="Helvetica,sans-Serif" font-size="10.00">sts21_interface_iic</text>
<text xml:space="preserve" text-anchor="middle" x="187.5" y="-270.5" font-family="Helvetica,sans-Serif" font-size="10.00">_read_with_wait</text>
</a>
</g>
</g>
<!-- Node1&#45;&gt;Node11 -->
<g id="edge10_Node000001_Node000011" class="edge">
<title>Node1&#45;&gt;Node11</title>
<g id="a_edge10_Node000001_Node000011"><a xlink:title=" ">
<path fill="none" stroke="#63b8ff" d="M58.74,-344.52C74.07,-333.72 99.22,-316.84 122.5,-305 125.2,-303.63 127.99,-302.28 130.83,-300.97"/>
<polygon fill="#63b8ff" stroke="#63b8ff" points="132.12,-304.23 139.86,-297 129.3,-297.82 132.12,-304.23"/>
</a>
</g>
</g>
<!-- Node12 -->
<g id="Node000012" class="node">
<title>Node12</title>
<g id="a_Node000012"><a xlink:href="group__sts21__interface__driver.html#ga7ddbd2f1748b593819de40445ebd5b7b" target="_top" xlink:title="interface iic bus write">
<polygon fill="white" stroke="#666666" points="236.38,-246 138.62,-246 138.62,-214 236.38,-214 236.38,-246"/>
<text xml:space="preserve" text-anchor="start" x="146.62" y="-232.5" font-family="Helvetica,sans-Serif" font-size="10.00">sts21_interface_iic</text>
<text xml:space="preserve" text-anchor="middle" x="187.5" y="-220.5" font-family="Helvetica,sans-Serif" font-size="10.00">_write</text>
</a>
</g>
</g>
<!-- Node1&#45;&gt;Node12 -->
<g id="edge11_Node000001_Node000012" class="edge">
<title>Node1&#45;&gt;Node12</title>
<g id="a_edge11_Node000001_Node000012"><a xlink:title=" ">
<path fill="none" stroke="#63b8ff" d="M49.76,-344.74C60.94,-324.79 88.19,-280.53 122.5,-255 124.29,-253.66 126.17,-252.39 128.1,-251.18"/>
<polygon fill="#63b8ff" stroke="#63b8ff" points="129.8,-254.24 136.84,-246.33 126.4,-248.12 129.8,-254.24"/>
</a>
</g>
</g>
<!-- Node13 -->
<g id="Node000013" class="node">
<title>Node13</title>
<g id="a_Node000013"><a xlink:href="group__sts21__interface__driver.html#gae5c54942f2b839f64ee4166f59e38256" target="_top" xlink:title="interface iic bus write command">
<polygon fill="white" stroke="#666666" points="236.38,-196 138.62,-196 138.62,-164 236.38,-164 236.38,-196"/>
<text xml:space="preserve" text-anchor="start" x="146.62" y="-182.5" font-family="Helvetica,sans-Serif" font-size="10.00">sts21_interface_iic</text>
<text xml:space="preserve" text-anchor="middle" x="187.5" y="-170.5" font-family="Helvetica,sans-Serif" font-size="10.00">_write_command</text>
</a>
</g>
</g>
<!-- Node1&#45;&gt;Node13 -->
<g id="edge12_Node000001_Node000013" class="edge">
<title>Node1&#45;&gt;Node13</title>
<g id="a_edge12_Node000001_Node000013"><a xlink:title=" ">
<path fill="none" stroke="#63b8ff" d="M46.88,-344.69C54.24,-317.91 77.46,-245.4 122.5,-205 124.38,-203.32 126.38,-201.74 128.47,-200.27"/>
<polygon fill="#63b8ff" stroke="#63b8ff" points="130.09,-203.38 136.85,-195.22 126.48,-197.38 130.09,-203.38"/>
</a>
</g>
</g>
<!-- Node14 -->
<g id="Node000014" class="node">
<title>Node14</title>
<g id="a_Node000014"><a xlink:href="group__sts21__base__driver.html#ga86e914624d28e3d371a9a073bf5727b8" target="_top" xlink:title="enable or disable disable otp reload">
<polygon fill="white" stroke="#666666" points="244.25,-146 130.75,-146 130.75,-114 244.25,-114 244.25,-146"/>
<text xml:space="preserve" text-anchor="start" x="138.75" y="-132.5" font-family="Helvetica,sans-Serif" font-size="10.00">sts21_set_disable_otp</text>
<text xml:space="preserve" text-anchor="middle" x="187.5" y="-120.5" font-family="Helvetica,sans-Serif" font-size="10.00">_reload</text>
</a>
</g>
</g>
<!-- Node1&#45;&gt;Node14 -->
<g id="edge13_Node000001_Node000014" class="edge">
<title>Node1&#45;&gt;Node14</title>
<g id="a_edge13_Node000001_Node000014"><a xlink:title=" ">
<path fill="none" stroke="#63b8ff" d="M45.38,-344.72C49.46,-312.32 66.33,-211.14 122.5,-155 123.12,-154.38 123.75,-153.78 124.4,-153.19"/>
<polygon fill="#63b8ff" stroke="#63b8ff" points="126.45,-156.03 132.38,-147.25 122.27,-150.42 126.45,-156.03"/>
</a>
</g>
</g>
<!-- Node15 -->
<g id="Node000015" class="node">
<title>Node15</title>
<g id="a_Node000015"><a xlink:href="group__sts21__base__driver.html#ga18a5787ea04d6dfef1a90a9bafb9630d" target="_top" xlink:title="enable or disable heater">
<polygon fill="white" stroke="#666666" points="233,-96 142,-96 142,-76 233,-76 233,-96"/>
<text xml:space="preserve" text-anchor="middle" x="187.5" y="-82.5" font-family="Helvetica,sans-Serif" font-size="10.00">sts21_set_heater</text>
</a>
</g>
</g>
<!-- Node1&#45;&gt;Node15 -->
<g id="edge14_Node000001_Node000015" class="edge">
<title>Node1&#45;&gt;Node15</title>
<g id="a_edge14_Node000001_Node000015"><a xlink:title=" ">
<path fill="none" stroke="#63b8ff" d="M44.24,-344.71C44.79,-306.95 51.88,-174.59 122.5,-105 125.18,-102.36 128.22,-100.08 131.47,-98.11"/>
<polygon fill="#63b8ff" stroke="#63b8ff" points="132.92,-101.3 140.38,-93.78 129.86,-95 132.92,-101.3"/>
</a>
</g>
</g>
<!-- Node16 -->
<g id="Node000016" class="node">
<title>Node16</title>
<g id="a_Node000016"><a xlink:href="group__sts21__base__driver.html#gabfd4d57bee38a746234c87d244d58ad8" target="_top" xlink:title="set chip mode">
<polygon fill="white" stroke="#666666" points="231.5,-58 143.5,-58 143.5,-38 231.5,-38 231.5,-58"/>
<text xml:space="preserve" text-anchor="middle" x="187.5" y="-44.5" font-family="Helvetica,sans-Serif" font-size="10.00">sts21_set_mode</text>
</a>
</g>
</g>
<!-- Node1&#45;&gt;Node16 -->
<g id="edge15_Node000001_Node000016" class="edge">
<title>Node1&#45;&gt;Node16</title>
<g id="a_edge15_Node000001_Node000016"><a xlink:title=" ">
<path fill="none" stroke="#63b8ff" d="M43.74,-344.64C42.3,-303.33 42.66,-148.72 122.5,-67 125.6,-63.83 129.21,-61.18 133.09,-58.97"/>
<polygon fill="#63b8ff" stroke="#63b8ff" points="134.21,-62.3 141.84,-54.96 131.29,-55.94 134.21,-62.3"/>
</a>
</g>
</g>
<!-- Node17 -->
<g id="Node000017" class="node">
<title>Node17</title>
<g id="a_Node000017"><a xlink:href="group__sts21__base__driver.html#ga6e473772ab485d51379892a1152efd8a" target="_top" xlink:title="set resolution">
<polygon fill="white" stroke="#666666" points="240.5,-20 134.5,-20 134.5,0 240.5,0 240.5,-20"/>
<text xml:space="preserve" text-anchor="middle" x="187.5" y="-6.5" font-family="Helvetica,sans-Serif" font-size="10.00">sts21_set_resolution</text>
</a>
</g>
</g>
<!-- Node1&#45;&gt;Node17 -->
<g id="edge16_Node000001_Node000017" class="edge">
<title>Node1&#45;&gt;Node17</title>
<g id="a_edge16_Node000001_Node000017"><a xlink:title=" ">
<path fill="none" stroke="#63b8ff" d="M45.36,-344.58C50.91,-294.26 77.24,-76.72 122.5,-29 123.23,-28.23 124,-27.49 124.78,-26.77"/>
<polygon fill="#63b8ff" stroke="#63b8ff" points="126.7,-29.7 132.89,-21.1 122.69,-23.97 126.7,-29.7"/>
</a>
</g>
</g>
</g>
</svg>
